grf
version=1
nRows=11
nColumns=46
inDegrees=yes
endheader
time	ground_force_1_vx	ground_force_1_vy	ground_force_1_vz	ground_force_1_px	ground_force_1_py	ground_force_1_pz	ground_moment_1_mx	ground_moment_1_my	ground_moment_1_mz	ground_force_2_vx	ground_force_2_vy	ground_force_2_vz	ground_force_2_px	ground_force_2_py	ground_force_2_pz	ground_moment_2_mx	ground_moment_2_my	ground_moment_2_mz	ground_force_3_vx	ground_force_3_vy	ground_force_3_vz	ground_force_3_px	ground_force_3_py	ground_force_3_pz	ground_moment_3_mx	ground_moment_3_my	ground_moment_3_mz	ground_force_4_vx	ground_force_4_vy	ground_force_4_vz	ground_force_4_px	ground_force_4_py	ground_force_4_pz	ground_moment_4_mx	ground_moment_4_my	ground_moment_4_mz	ground_force_5_vx	ground_force_5_vy	ground_force_5_vz	ground_force_5_px	ground_force_5_py	ground_force_5_pz	ground_moment_5_mx	ground_moment_5_my	ground_moment_5_mz
0.557500	0.000000	0.000000	0.000000	0.000000	0.000000	0.000000	0.000000	0.000000	0.000000	250.346550	910.216507	-75.237582	-0.181818	-0.000000	0.309065	-0.000000	3.922121	-0.000000	-18.749959	277.051153	-21.408510	0.389469	0.000000	0.098806	0.000000	0.819902	-0.000000	0.000000	0.000000	0.000000	0.000000	0.000000	0.000000	0.000000	0.000000	0.000000	0.000000	0.000000	0.000000	0.000000	0.000000	0.000000	0.000000	0.000000	0.000000
0.558000	0.000000	0.000000	0.000000	0.000000	0.000000	0.000000	0.000000	0.000000	0.000000	250.676965	906.783024	-74.638214	-0.181767	-0.000000	0.309016	-0.000000	3.897575	-0.000000	-20.274031	288.161468	-22.200979	0.389806	0.000000	0.100611	0.000000	0.840176	-0.000000	0.000000	0.000000	0.000000	0.000000	0.000000	0.000000	0.000000	0.000000	0.000000	0.000000	0.000000	0.000000	0.000000	0.000000	0.000000	0.000000	0.000000	0.000000
0.558500	0.000000	0.000000	0.000000	0.000000	0.000000	0.000000	0.000000	0.000000	0.000000	250.988667	903.286895	-74.028620	-0.181717	-0.000000	0.308968	-0.000000	3.873182	-0.000000	-21.871712	299.238354	-22.977724	0.390151	0.000000	0.102346	0.000000	0.860768	-0.000000	0.000000	0.000000	0.000000	0.000000	0.000000	0.000000	0.000000	0.000000	0.000000	0.000000	0.000000	0.000000	0.000000	0.000000	0.000000	0.000000	0.000000	0.000000
0.559000	0.000000	0.000000	0.000000	0.000000	0.000000	0.000000	0.000000	0.000000	0.000000	251.281110	899.727345	-73.408883	-0.181667	-0.000000	0.308919	-0.000000	3.848936	-0.000000	-23.542263	310.252787	-23.735823	0.390504	0.000000	0.104013	0.000000	0.881680	-0.000000	0.000000	0.000000	0.000000	0.000000	0.000000	0.000000	0.000000	0.000000	0.000000	0.000000	0.000000	0.000000	0.000000	0.000000	0.000000	0.000000	0.000000	0.000000
0.559500	0.000000	0.000000	0.000000	0.000000	0.000000	0.000000	0.000000	0.000000	0.000000	251.553739	896.103601	-72.779103	-0.181618	-0.000000	0.308869	-0.000000	3.824831	-0.000000	-25.284542	321.176266	-24.472348	0.390864	0.000000	0.105609	0.000000	0.902915	-0.000000	0.000000	0.000000	0.000000	0.000000	0.000000	0.000000	0.000000	0.000000	0.000000	0.000000	0.000000	0.000000	0.000000	0.000000	0.000000	0.000000	0.000000	0.000000
0.560000	0.000000	0.000000	0.000000	0.000000	0.000000	0.000000	0.000000	0.000000	0.000000	251.805989	892.414892	-72.139398	-0.181569	-0.000000	0.308819	-0.000000	3.800860	-0.000000	-27.096994	331.981270	-25.184395	0.391230	0.000000	0.107136	0.000000	0.924470	-0.000000	0.000000	0.000000	0.000000	0.000000	0.000000	0.000000	0.000000	0.000000	0.000000	0.000000	0.000000	0.000000	0.000000	0.000000	0.000000	0.000000	0.000000	0.000000
0.560500	0.000000	0.000000	0.000000	0.000000	0.000000	0.000000	0.000000	0.000000	0.000000	252.037287	888.660460	-71.489896	-0.181520	-0.000000	0.308769	-0.000000	3.777015	-0.000000	-28.977634	342.641712	-25.869110	0.391602	0.000000	0.108594	0.000000	0.946339	-0.000000	0.000000	0.000000	0.000000	0.000000	0.000000	0.000000	0.000000	0.000000	0.000000	0.000000	0.000000	0.000000	0.000000	0.000000	0.000000	0.000000	0.000000	0.000000
0.561000	0.000000	0.000000	0.000000	0.000000	0.000000	0.000000	0.000000	0.000000	0.000000	252.247047	884.839569	-70.830734	-0.181472	-0.000000	0.308718	-0.000000	3.753290	-0.000000	-30.924051	353.133359	-26.523719	0.391978	0.000000	0.109981	0.000000	0.968514	-0.000000	0.000000	0.000000	0.000000	0.000000	0.000000	0.000000	0.000000	0.000000	0.000000	0.000000	0.000000	0.000000	0.000000	0.000000	0.000000	0.000000	0.000000	0.000000
0.561500	0.000000	0.000000	0.000000	0.000000	0.000000	0.000000	0.000000	0.000000	0.000000	252.434671	880.951519	-70.162060	-0.181425	-0.000000	0.308667	-0.000000	3.729674	-0.000000	-32.933406	363.434187	-27.145560	0.392359	0.000000	0.111301	0.000000	0.990982	-0.000000	0.000000	0.000000	0.000000	0.000000	0.000000	0.000000	0.000000	0.000000	0.000000	0.000000	0.000000	0.000000	0.000000	0.000000	0.000000	0.000000	0.000000	0.000000
0.562000	0.000000	0.000000	0.000000	0.000000	0.000000	0.000000	0.000000	0.000000	0.000000	252.599546	876.995642	-69.484031	-0.181378	-0.000000	0.308616	-0.000000	3.706156	-0.000000	-35.002442	373.524660	-27.732124	0.392742	0.000000	0.112552	0.000000	1.013732	-0.000000	0.000000	0.000000	0.000000	0.000000	0.000000	0.000000	0.000000	0.000000	0.000000	0.000000	0.000000	0.000000	0.000000	0.000000	0.000000	0.000000	0.000000	0.000000
0.562500	0.000000	0.000000	0.000000	0.000000	0.000000	0.000000	0.000000	0.000000	0.000000	252.741043	872.971317	-68.796812	-0.181331	-0.000000	0.308564	-0.000000	3.682722	-0.000000	-37.127501	383.387916	-28.281081	0.393128	0.000000	0.113736	0.000000	1.036747	-0.000000	0.000000	0.000000	0.000000	0.000000	0.000000	0.000000	0.000000	0.000000	0.000000	0.000000	0.000000	0.000000	0.000000	0.000000	0.000000	0.000000	0.000000	0.000000
